HIERARCHY
ROOT pelvis
{
  OFFSET 0 100 0
  CHANNELS 6 Xposition Yposition Zposition Zrotation Xrotation Yrotation
  JOINT pelvis_right_femur
  {
    OFFSET -10.78128 -3.44521 -0.5502486
    CHANNELS 3 Zrotation Xrotation Yrotation
    JOINT right_femur_tibia
    {
      OFFSET -0.8047443 -44.0398 -0.1307829
      CHANNELS 3 Zrotation Xrotation Yrotation
      JOINT right_tibia_foot
      {
        OFFSET 3.006224 -47.83518 -5
        CHANNELS 3 Zrotation Xrotation Yrotation
        End Site
        {
          OFFSET 0 -5 15
        }
      }
    }
  }
  JOINT pelvis_left_femur
  {
    OFFSET 10.78128 -3.44521 -0.5502486
    CHANNELS 3 Zrotation Xrotation Yrotation
    JOINT left_femur_tibia
    {
      OFFSET 0.8047443 -44.0398 -0.1307829
      CHANNELS 3 Zrotation Xrotation Yrotation
      JOINT left_tibia_foot
      {
        OFFSET -4.370144 -48.10324 -4.275266
        CHANNELS 3 Zrotation Xrotation Yrotation
        End Site
        {
          OFFSET 0 -5 15
        }
      }
    }
  }
  JOINT pelvis_spine1
  {
    OFFSET 0 6.468898 -3.129235
    CHANNELS 3 Zrotation Xrotation Yrotation
    JOINT spine1
    {
      OFFSET 0 23.15396 4.99043
      CHANNELS 3 Zrotation Xrotation Yrotation
      JOINT spine2
      {
        OFFSET 0 20.79997 -5.064912
        CHANNELS 3 Zrotation Xrotation Yrotation
        JOINT neck
        {
          OFFSET 0 14.38658 9.616178
          CHANNELS 3 Zrotation Xrotation Yrotation
          End Site
          {
            OFFSET 0 20 0
          }
        }
      }
      JOINT right_manubrium
      {
        OFFSET -5.722621 16.35077 3.967754
        CHANNELS 3 Zrotation Xrotation Yrotation
        JOINT right_clavicle
        {
          OFFSET -13.16364 1.694482 -4.693211
          CHANNELS 3 Zrotation Xrotation Yrotation
          JOINT right_humerus
          {
            OFFSET -28.5034 -0.3100689 -2.792744
            CHANNELS 3 Zrotation Xrotation Yrotation
            JOINT right_radius
            {
              OFFSET -25.15693 0.02248979 -1.271978
              CHANNELS 3 Zrotation Xrotation Yrotation
              End Site
              {
                OFFSET -15 0 0
              }
            }
          }
        }
      }
      JOINT left_manubrium
      {
        OFFSET 5.722621 16.35077 3.967754
        CHANNELS 3 Zrotation Xrotation Yrotation
        JOINT left_clavicle
        {
          OFFSET 13.16364 1.694482 -4.693211
          CHANNELS 3 Zrotation Xrotation Yrotation
          JOINT left_humerus
          {
            OFFSET 29.39168 -1.063119 -2.237045
            CHANNELS 3 Zrotation Xrotation Yrotation
            JOINT left_radius
            {
              OFFSET 24.59957 -0.9528479 0.9047498
              CHANNELS 3 Zrotation Xrotation Yrotation
              End Site
              {
                OFFSET 15 -0 -0
              }
            }
          }
        }
      }
    }
  }
}
MOTION
Frames: 21
Frame Time: 0.0416666666667
0 103.5113 0 1.439423 -0.1121878 -0.01684782 4.120047 -19.15212 12.18169 -0 41.48128 -0 -5.039945 -18.19926 -3.03451 -8.266801 9.09832 -24.09881 -0 3.812685 -0 18.62583 -12.01539 32.01075 -4.500633 -2.90826 5.401796 2.757705 9.933897 -7.320627 1.493799 21.92255 6.936158 2.819209 -24.98581 10.33814 6.921415 -20.43596 12.06765 85.3986 40.2839 -17.31959 -0 0 15.33852 -3.44305 7.204948 3.828274 5.396549 -18.48854 -1.334592 -90.70475 21.97429 19.82783 0 0 -17.74813 17.1387 12.18961 -4.512278
0.3722857 102.8801 1.461268 1.23207 0.4188572 -0.008399692 4.584797 -20.52703 11.99768 -0 40.05959 -0 -4.984317 -17.2115 -2.74779 -8.10225 9.549216 -23.69182 -0 4.198916 -0 18.26905 -12.29312 31.25357 -4.311567 -2.769957 5.273886 2.876042 9.978221 -7.39952 1.434329 21.68474 7.031474 2.878893 -25.25765 10.35093 6.945242 -20.31863 12.08072 85.6164 40.4779 -17.74051 -0 0 15.12282 -3.327441 7.23448 3.926402 5.342142 -18.54542 -1.512124 -90.56521 22.14161 19.81531 0 0 -18.47949 16.821 11.64938 -4.110576
0.7186319 102.8258 4.286957 -0.797066 3.548896 0.2625992 7.918381 -26.8035 11.60786 -0 34.42883 -0 -5.209635 -11.23366 -1.677934 -6.465271 11.48433 -20.82228 -0 12.06379 -0 12.0846 -14.18902 24.37308 -2.412372 -2.425863 4.408822 3.690316 10.09114 -8.245175 1.086557 20.04273 7.305822 3.064675 -27.28367 10.28989 7.465795 -19.4772 12.01186 86.01175 40.54535 -19.99797 -0 0 15.14389 -3.344292 8.363032 4.11204 4.886635 -18.56921 -1.721622 -92.06418 23.35454 22.51937 0 0 -18.34808 13.10908 10.73164 0.1427151
1.056008 102.7939 7.917017 -1.82517 4.777251 0.6555461 9.344482 -29.74008 10.87766 -0 30.38554 -0 -5.600461 -8.193657 -1.235598 -5.539859 12.34146 -18.95404 -0 16.99409 -0 8.247793 -15.03409 20.31247 -1.451754 -2.050809 3.827067 4.03703 9.887203 -8.539026 0.9780342 19.50909 7.358215 3.135161 -27.97096 10.16694 7.562762 -18.69106 11.88095 86.18253 40.14073 -20.95574 -0 0 14.6002 -3.932185 9.176381 4.303441 4.68613 -18.62024 -1.910436 -92.66435 24.11653 23.2922 0 0 -18.00465 11.09187 10.74256 2.355719
1.403357 102.7306 12.02491 -2.294218 5.16975 1.021672 9.917304 -31.0102 10.22534 -0 27.7955 -0 -5.846136 -6.520127 -0.9629473 -5.114395 12.53398 -17.69345 -0 20.26349 -0 6.488892 -15.13226 18.24107 -0.9346536 -1.792743 3.581825 4.102721 9.849239 -8.60019 0.9521641 19.32201 7.348039 3.177583 -28.0735 10.04522 7.509355 -18.21373 11.80873 86.30182 39.70507 -21.32676 -0 0 14.04581 -4.493922 9.657515 4.453585 4.705128 -18.79138 -2.080014 -92.59272 24.04921 23.12037 0 0 -17.95889 10.72393 10.6591 2.687263
1.776516 102.6664 16.46216 -2.513801 5.265879 1.352292 10.18132 -31.48561 9.711128 -0 26.14737 -0 -5.954554 -5.405024 -0.7046299 -4.949914 12.3761 -16.75862 -0 22.87101 -0 5.86478 -14.8023 17.17825 -0.5950102 -1.667243 3.547315 4.0475 10.01767 -8.597588 0.9296595 19.20295 7.346211 3.226231 -27.9789 9.936297 7.446634 -17.97595 11.80933 86.41497 39.36775 -21.5086 -0 0 13.60047 -4.964533 9.974071 4.589261 4.825931 -19.05368 -2.236836 -92.23735 23.44401 22.65813 0 0 -18.14385 11.26616 10.36143 1.996756
2.180262 102.6088 21.17716 -2.612722 5.202313 1.646146 10.2748 -31.56454 9.144127 -0 24.76064 -0 -6.017836 -4.445241 -0.4352025 -4.89524 12.07404 -15.91293 -0 25.26628 -0 5.686612 -14.29681 16.49943 -0.3323397 -1.628356 3.598444 3.940596 10.31437 -8.580215 0.8956213 19.12497 7.349615 3.276494 -27.7787 9.809657 7.345019 -17.85065 11.85237 86.57092 38.95025 -21.67162 -0 0 13.14825 -5.516427 10.23114 4.782861 4.994545 -19.41746 -2.423797 -91.75044 22.58542 22.04134 0 0 -18.49978 12.15998 9.978669 0.8957169
2.609713 102.5526 26.15395 -2.64598 5.001032 1.898215 10.23475 -31.39177 8.412501 -0 23.29466 -0 -6.109569 -3.51166 -0.1718917 -4.869708 11.73317 -15.05625 -0 27.62729 -0 5.5843 -13.74678 15.91639 -0.1095411 -1.641811 3.66011 3.811261 10.67079 -8.55728 0.8544173 19.11217 7.344832 3.316353 -27.4907 9.651502 7.165325 -17.75827 11.91234 86.80403 38.32872 -21.87746 -0 0 12.60337 -6.250283 10.47436 5.068085 5.173922 -19.87761 -2.665919 -91.21471 21.68084 21.31089 0 0 -18.9679 13.06682 9.64406 -0.2448495
3.054669 102.4958 31.38792 -2.641811 4.665725 2.101469 10.09157 -30.99754 7.497581 -0 21.65343 -0 -6.273037 -2.591892 0.06652476 -4.833675 11.38241 -14.16265 -0 30.07147 -0 5.393736 -13.18406 15.32327 0.09389868 -1.693166 3.701749 3.669597 11.05481 -8.527936 0.8129807 19.18026 7.323409 3.337166 -27.12197 9.464013 6.889353 -17.66515 11.97654 87.13659 37.4695 -22.14385 -0 0 11.93461 -7.188994 10.7239 5.446522 5.337693 -20.42277 -2.969439 -90.67953 20.84055 20.50262 0 0 -19.50247 13.82899 9.435019 -1.245704
3.501982 102.442 36.87371 -2.608071 4.185072 2.245366 9.866034 -30.34843 6.421389 -0 19.85489 -0 -6.532824 -1.716627 0.2619615 -4.773248 11.01169 -13.23828 -0 32.65763 -0 5.074388 -12.59613 14.71529 0.2869828 -1.784335 3.721313 3.513424 11.46207 -8.489026 0.7786 19.33722 7.277381 3.331078 -26.67259 9.252994 6.50021 -17.57244 12.04043 87.59176 36.36106 -22.47115 -0 0 11.14212 -8.329908 10.98118 5.911131 5.470656 -21.05061 -3.333428 -90.16418 20.09997 19.64213 0 0 -20.08658 14.39688 9.389727 -2.043136
3.935466 102.3969 42.60023 -2.538704 3.527291 2.315716 9.567258 -29.37725 5.210529 -0 17.94909 -0 -6.910462 -0.9177374 0.3920624 -4.685916 10.60105 -12.29352 -0 35.39597 -0 4.638587 -11.96358 14.12827 0.4718553 -1.926003 3.729193 3.332402 11.90121 -8.436855 0.7599238 19.59023 7.194101 3.287589 -26.13453 9.02035 5.964957 -17.503 12.10159 88.20319 34.96269 -22.85356 -0 0 10.23755 -9.680403 11.23487 6.459218 5.563813 -21.77146 -3.759396 -89.66652 19.45235 18.74417 0 0 -20.73022 14.76006 9.535593 -2.614722
4.335001 102.3676 48.54876 -2.422416 2.643525 2.296272 9.202953 -28.00271 3.89657 -0 16.00405 -0 -7.433073 -0.2143976 0.4253805 -4.570662 10.13366 -11.33479 -0 38.26732 -0 4.11298 -11.27347 13.60682 0.649495 -2.13097 3.739796 3.111588 12.38364 -8.368033 0.7682849 19.94513 7.053827 3.191989 -25.49748 8.763577 5.231325 -17.49503 12.15586 89.01653 33.19731 -23.27922 -0 0 9.244799 -11.25826 11.46447 7.090413 5.60585 -22.6001 -4.253747 -89.17636 18.87378 17.83073 0 0 -21.45662 14.90341 9.90192 -2.929228
4.676294 102.3635 54.69212 -2.250826 1.477037 2.171019 8.792709 -26.14218 2.534494 -0 14.12492 -0 -8.133374 0.3886175 0.3198389 -4.422387 9.593688 -10.36478 -0 41.2482 -0 3.529465 -10.51564 13.19213 0.8247875 -2.408332 3.770098 2.834431 12.91969 -8.280295 0.8183166 20.39925 6.829152 3.025935 -24.75795 8.477557 4.235079 -17.60158 12.19586 90.08246 30.97157 -23.72249 -0 0 8.214989 -13.07258 11.64374 7.797479 5.575494 -23.54224 -4.826539 -88.68688 18.33234 16.95617 0 0 -22.28338 14.79129 10.51307 -2.927223
4.93219 102.4012 60.9931 -2.025584 -0.02154468 1.92635 8.377418 -23.72267 1.222617 -0 12.4778 -0 -9.040012 0.8977185 0.02760172 -4.228499 8.951488 -9.38629 -0 44.33277 -0 2.935626 -9.66952 12.91988 1.009174 -2.757797 3.841387 2.487014 13.51948 -8.173603 0.9266354 20.93054 6.487199 2.770777 -23.92938 8.156412 2.918376 -17.89077 12.21198 91.43933 28.21416 -24.13231 -0 0 7.247604 -15.09721 11.74933 8.557418 5.436994 -24.57778 -5.48913 -88.20541 17.78863 16.23261 0 0 -23.1977 14.37389 11.36782 -2.528009
5.076019 102.5098 67.40049 -1.764901 -1.869215 1.552044 8.020578 -20.6933 0.1096184 -0 11.28778 -0 -10.15627 1.320252 -0.489231 -3.965321 8.135921 -8.408146 -0 47.54259 -0 2.411563 -8.687494 12.82108 1.219061 -3.164656 3.980572 2.065489 14.19654 -8.051153 1.107109 21.48737 5.997168 2.414674 -23.05095 7.795228 1.262834 -18.43991 12.19703 93.08277 24.9318 -24.42339 -0 0 6.507575 -17.24625 11.78193 9.330299 5.142431 -25.64377 -6.250701 -87.76778 17.20009 15.84703 0 0 -24.12508 13.61335 12.4151 -1.661633
5.08686 102.7303 73.84101 -1.506493 -4.017079 1.039884 7.795501 -17.03896 -0.6273215 -0 10.77594 -0 -11.4281 1.638753 -1.231702 -3.594293 6.998252 -7.452504 -0 50.89032 -0 2.07676 -7.489911 12.92399 1.466659 -3.597197 4.218422 1.585264 14.97031 -7.918084 1.362489 21.98684 5.344732 1.963092 -22.18855 7.392118 -0.6661115 -19.31785 12.1549 94.92432 21.27228 -24.47946 -0 0 6.224182 -19.36661 11.79869 10.07316 4.647798 -26.6262 -7.11101 -87.4541 16.53999 16.05105 0 0 -24.90239 12.52648 13.5454 -0.3227621
4.956165 103.0987 80.20941 -1.299726 -6.323508 0.3815913 7.753526 -12.79445 -0.8427362 -0 11.01961 -0 -12.71397 1.769119 -2.13836 -3.061535 5.291133 -6.556128 -0 54.24027 -0 2.066522 -6.00253 13.25512 1.742209 -4.00674 4.583624 1.083936 15.85622 -7.773815 1.676164 22.33017 4.54874 1.447974 -21.4185 6.950415 -2.68744 -20.55784 12.10869 96.75559 17.55705 -24.17215 -0 0 6.658996 -21.26468 11.93409 10.76708 3.947224 -27.37432 -8.045921 -87.39251 15.82784 17.10007 0 0 -25.28614 11.22084 14.61927 1.379776
4.695543 103.6015 86.36946 -1.183231 -8.5581 -0.4267012 7.881844 -8.067243 -0.5012616 -0 11.79669 -0 -13.7808 1.527794 -3.08488 -2.306143 2.709266 -5.753107 -0 57.04991 -0 2.468058 -4.257285 13.83319 1.99727 -4.327207 5.092845 0.6081416 16.83108 -7.597411 2.011394 22.43321 3.668222 0.926333 -20.79473 6.480632 -4.524396 -22.13504 12.09676 98.24988 14.23503 -23.38294 -0 0 8.046907 -22.76616 12.36814 11.43672 3.112588 -27.74038 -8.986759 -87.73103 15.14268 19.14673 0 0 -25.02405 9.876047 15.5246 3.233145
4.34564 104.1207 92.18677 -1.161725 -10.44158 -1.36797 8.082976 -3.077731 0.2785691 -0 12.56751 -0 -14.34276 0.6530487 -3.916307 -1.278014 -0.9702196 -5.041145 -0 58.14055 -0 3.240958 -2.504557 14.64717 2.151762 -4.476633 5.735747 0.1898665 17.78208 -7.338618 2.319735 22.25212 2.792345 0.4610829 -20.32355 6.003737 -5.887229 -23.96434 12.14871 99.02484 11.75521 -22.00693 -0 0 10.5319 -23.77612 13.2287 12.14283 2.303451 -27.61928 -9.803922 -88.57416 14.58684 22.14548 0 0 -23.96634 8.647792 16.20541 5.017747
3.982911 104.4197 97.59976 -1.210948 -11.69373 -2.387903 8.210486 1.808897 1.248367 -0 12.72545 -0 -14.13613 -1.099228 -4.480781 0.0374395 -5.667026 -4.368507 -0 55.83483 -0 4.175854 -1.200848 15.61534 2.141034 -4.380708 6.451813 -0.1596382 18.48551 -6.939431 2.547899 21.78843 2.024325 0.08991834 -19.97621 5.558807 -6.564895 -25.91155 12.25562 98.74725 10.43073 -19.9504 -0 0 14.09784 -24.30482 14.48886 12.96348 1.717363 -26.95649 -10.30964 -89.90698 14.21355 25.82278 0 0 -22.13328 7.564644 16.61986 6.613429
3.713361 104.2268 102.6953 -1.319141 -12.08367 -3.404533 8.148976 6.148335 2.093169 -0 12.05906 -0 -13.03465 -3.816346 -4.641528 1.572997 -10.79282 -3.692952 -0 48.79293 -0 4.935142 -0.767794 16.5495 1.98191 -4.039477 7.105132 -0.4217245 18.67011 -6.395228 2.638575 21.09575 1.472206 -0.1954099 -19.7266 5.212138 -6.461639 -27.78662 12.36374 97.24599 10.37611 -17.1837 -0 0 18.44532 -24.46801 15.9481 13.98651 1.490037 -25.74261 -10.29485 -91.53393 13.98502 29.67888 0 0 -19.68222 6.536302 16.69091 7.980269
